# xmcd
#
# Track frame offsets: 
#        150
#        14193
#        29165
#        42546
#        57467
#        71466
#        85472
#        100929
#        114024
#        128224
#        145003
#        158071
#        172023
#        184713
#
# Disc length: 2648 seconds
#
# Revision: 0
# Processed by: cddbd v1.5.2PL0 Copyright (c) Steve Scherf et al.
# Submitted via: ExactAudioCopyFreeDBPlugin 1.0
#
DISCID=c80a560e
DTITLE=Hannah - Weiber, es isch Zeit
DYEAR=2013
DGENRE=Dance
TTITLE0=weiber, es isch zeit
TTITLE1=zoags mir
TTITLE2=schön, dass es dich gibt
TTITLE3=i halts nit aus
TTITLE4=bua, nimm dein huat
TTITLE5=soll i dein engerl sein
TTITLE6=weil i bin a dirndl
TTITLE7=jetzt oder nie
TTITLE8=barfuss
TTITLE9=wer hat angst vorm schwarzen mann
TTITLE10=wenn man´s nimmt, wie´s halt kimmt
TTITLE11=die dirndljäger
TTITLE12=liab mi
TTITLE13=a schlaflied
EXTD=
EXTT0=
EXTT1=
EXTT2=
EXTT3=
EXTT4=
EXTT5=
EXTT6=
EXTT7=
EXTT8=
EXTT9=
EXTT10=
EXTT11=
EXTT12=
EXTT13=
PLAYORDER=
